<svg xmlns="http://www.w3.org/2000/svg" viewBox="0 0 800 480" role="img" aria-label="Mosaic hero (dark)">
  <defs>
    <linearGradient id="g" x1="0" x2="1" y1="0" y2="1">
      <stop offset="0" stop-color="#0B1020"/>
      <stop offset="1" stop-color="#0F172A"/>
    </linearGradient>
  </defs>
  <rect width="800" height="480" fill="url(#g)"/>
  <g transform="translate(80,60)">
    <rect x="0" y="0" width="640" height="360" rx="12" fill="#0E152B" stroke="#334155" stroke-width="2"/>
    <g>
      <!-- mosaic tiles -->
      <g opacity="0.95">
        <!-- rows -->
        <g>
          <!-- 9 columns -->
          <rect x="20" y="20" width="56" height="46" fill="#1f2937"/>
          <rect x="84" y="20" width="56" height="46" fill="#111827"/>
          <rect x="148" y="20" width="56" height="46" fill="#0f172a"/>
          <rect x="212" y="20" width="56" height="46" fill="#0b1320"/>
          <rect x="276" y="20" width="56" height="46" fill="#1e293b"/>
          <rect x="340" y="20" width="56" height="46" fill="#0e1726"/>
          <rect x="404" y="20" width="56" height="46" fill="#152238"/>
          <rect x="468" y="20" width="56" height="46" fill="#101827"/>
          <rect x="532" y="20" width="56" height="46" fill="#1a2536"/>
        </g>
        
        <g>
          <rect x="20" y="76" width="56" height="46" fill="#0f172a"/>
          <rect x="84" y="76" width="56" height="46" fill="#1f2937"/>
          <rect x="148" y="76" width="56" height="46" fill="#0b1320"/>
          <rect x="212" y="76" width="56" height="46" fill="#101827"/>
          <rect x="276" y="76" width="56" height="46" fill="#152238"/>
          <rect x="340" y="76" width="56" height="46" fill="#0e1726"/>
          <rect x="404" y="76" width="56" height="46" fill="#1a2536"/>
          <rect x="468" y="76" width="56" height="46" fill="#0f172a"/>
          <rect x="532" y="76" width="56" height="46" fill="#111827"/>
        </g>
        
        <g>
          <rect x="20" y="132" width="56" height="46" fill="#1e293b"/>
          <rect x="84" y="132" width="56" height="46" fill="#0e1726"/>
          <rect x="148" y="132" width="56" height="46" fill="#101827"/>
          <rect x="212" y="132" width="56" height="46" fill="#1f2937"/>
          <rect x="276" y="132" width="56" height="46" fill="#152238"/>
          <rect x="340" y="132" width="56" height="46" fill="#0b1320"/>
          <rect x="404" y="132" width="56" height="46" fill="#0f172a"/>
          <rect x="468" y="132" width="56" height="46" fill="#1a2536"/>
          <rect x="532" y="132" width="56" height="46" fill="#111827"/>
        </g>
        
        <g>
          <rect x="20" y="188" width="56" height="46" fill="#101827"/>
          <rect x="84" y="188" width="56" height="46" fill="#0b1320"/>
          <rect x="148" y="188" width="56" height="46" fill="#1a2536"/>
          <rect x="212" y="188" width="56" height="46" fill="#0f172a"/>
          <rect x="276" y="188" width="56" height="46" fill="#1f2937"/>
          <rect x="340" y="188" width="56" height="46" fill="#0e1726"/>
          <rect x="404" y="188" width="56" height="46" fill="#1e293b"/>
          <rect x="468" y="188" width="56" height="46" fill="#111827"/>
          <rect x="532" y="188" width="56" height="46" fill="#152238"/>
        </g>
        
        <g>
          <rect x="20" y="244" width="56" height="46" fill="#0e1726"/>
          <rect x="84" y="244" width="56" height="46" fill="#152238"/>
          <rect x="148" y="244" width="56" height="46" fill="#0f172a"/>
          <rect x="212" y="244" width="56" height="46" fill="#1a2536"/>
          <rect x="276" y="244" width="56" height="46" fill="#111827"/>
          <rect x="340" y="244" width="56" height="46" fill="#1f2937"/>
          <rect x="404" y="244" width="56" height="46" fill="#0b1320"/>
          <rect x="468" y="244" width="56" height="46" fill="#101827"/>
          <rect x="532" y="244" width="56" height="46" fill="#1e293b"/>
        </g>
      </g>
    </g>
  </g>
</svg>
